<?xml version="1.0" standalone="no"?>
<!DOCTYPE svg PUBLIC "-//W3C//DTD SVG 20010904//EN"
 "http://www.w3.org/TR/2001/REC-SVG-20010904/DTD/svg10.dtd">
<svg version="1.0" xmlns="http://www.w3.org/2000/svg"
 width="1080.000000pt" height="1350.000000pt" viewBox="0 0 1080.000000 1350.000000"
 preserveAspectRatio="xMidYMid meet">
<metadata>
Created by potrace 1.16, written by Peter Selinger 2001-2019
</metadata>
<g transform="translate(0.000000,1350.000000) scale(0.100000,-0.100000)"
fill="#000000" stroke="none">
<path d="M2875 6871 c-1 -47 -6 -191 -13 -320 -14 -274 -15 -626 -2 -596 5 11
14 182 20 380 5 198 14 407 20 465 11 111 8 145 -12 153 -10 3 -13 -17 -13
-82z"/>
<path d="M4038 6947 c8 -9 9 -47 2 -128 -14 -169 -34 -539 -31 -581 1 -20 -3
-39 -9 -43 -5 -3 -10 -11 -10 -16 0 -6 5 -7 10 -4 6 4 10 -38 10 -119 0 -90
-3 -126 -12 -129 -9 -4 -8 -6 2 -6 40 -2 41 3 41 350 0 184 5 377 10 429 22
224 22 229 9 245 -7 8 -17 15 -22 15 -7 0 -6 -5 0 -13z"/>
<path d="M1826 6598 c-3 -62 -8 -169 -10 -238 -2 -69 -8 -144 -14 -166 -5 -25
-5 -48 0 -58 6 -10 5 -16 -2 -16 -7 0 -8 -6 -1 -19 6 -10 7 -21 4 -25 -9 -9
-10 -106 -1 -106 13 0 9 -18 -8 -34 -14 -15 -14 -16 5 -16 27 0 29 12 36 225
11 400 18 541 28 553 7 9 4 12 -11 12 -19 0 -20 -8 -26 -112z"/>
<path d="M5286 6633 c-3 -43 -7 -151 -8 -241 -1 -90 -6 -166 -10 -168 -5 -3
-8 -38 -8 -77 0 -40 -1 -96 -3 -124 -1 -29 1 -53 5 -53 13 0 9 -18 -8 -34 -8
-9 -11 -16 -6 -16 31 0 36 58 48 535 3 138 10 235 16 242 8 10 6 13 -4 13 -12
0 -17 -18 -22 -77z"/>
</g>
</svg>
